/* XPM */
static char * zero_xpm[] = {
"13 20 2 1",
" 	c None",
".	c #000000",
"             ",
"     ...     ",
"   .......   ",
"  .........  ",
" ...     ... ",
" ..       .. ",
"...       ...",
"...       ...",
"...       ...",
"...       ...",
"...       ...",
"...       ...",
"...       ...",
"...       ...",
" ..       .. ",
" ...     ... ",
"  .........  ",
"   .......   ",
"     ...     ",
"             "};

static char * one_xpm[] = {
"10 20 2 1",
" 	c None",
".	c #000000",
"          ",
"    ..    ",
"   ...    ",
" .....    ",
"......    ",
"... ..    ",
"    ..    ",
"    ..    ",
"    ..    ",
"    ..    ",
"    ..    ",
"    ..    ",
"    ..    ",
"    ..    ",
"    ..    ",
"    ..    ",
" ........ ",
"..........",
" ........ ",
"          "};

static char * two_xpm[] = {
"13 20 2 1",
" 	c None",
".	c #000000",
"             ",
"    ...      ",
"  .......    ",
" .........   ",
"....    ...  ",
"...      ..  ",
"         ..  ",
"         ..  ",
"         ..  ",
"        ...  ",
"       ...   ",
"      ...    ",
"     ...     ",
"    ...      ",
"   ...       ",
"  ...        ",
" ........... ",
".............",
" ........... ",
"             "};

static char * three_xpm[] = {
"13 20 2 1",
" 	c None",
".	c #000000",
"             ",
" ..........  ",
"............ ",
" ........... ",
"       ....  ",
"      ...    ",
"     ...     ",
"    ...      ",
"   ......    ",
"  .........  ",
"   ......... ",
"         ... ",
"          ...",
"          ...",
" .        ...",
"...      ... ",
" ........... ",
" ..........  ",
"   ......    ",
"             "};

static char * four_xpm[] = {
"15 20 2 1",
" 	c None",
".	c #000000",
"               ",
"      .        ",
"     ..        ",
"    ...        ",
"    ...        ",
"   ...    ..   ",
"   ...    ..   ",
"   ..     ...  ",
"  ...     ...  ",
"  ..      ...  ",
" ...      ...  ",
" ...      ...  ",
"...............",
"...............",
"          ...  ",
"          ...  ",
"          ...  ",
"          ..   ",
"           .   ",
"               "};

static char * five_xpm[] = {
"13 20 2 1",
" 	c None",
".	c #000000",
"             ",
"  .........  ",
" ..........  ",
" ..........  ",
" ...         ",
" ..          ",
" ..          ",
" ..          ",
".........    ",
"...........  ",
" ........... ",
"         ... ",
"          ...",
"          ...",
" .        ...",
"...      ... ",
" ........... ",
" ..........  ",
"   ......    ",
"             "};

static char * six_xpm[] = {
"13 20 2 1",
" 	c None",
".	c #000000",
"             ",
"        .    ",
"       ...   ",
"      ...    ",
"     ...     ",
"    ...      ",
"   .....     ",
"   .......   ",
"  .........  ",
" ...     ... ",
" ..       .. ",
"...       ...",
"...       ...",
"...       ...",
" ..       .. ",
" ...     ... ",
"  .........  ",
"   .......   ",
"     ...     ",
"             "};

static char * seven_xpm[] = {
"13 20 2 1",
" 	c None",
".	c #000000",
"             ",
" ........... ",
".............",
" ........... ",
"         ... ",
"        ...  ",
"        ...  ",
"       ...   ",
"       ..    ",
"      ...    ",
"     ...     ",
"     ...     ",
"    ...      ",
"    ...      ",
"   ...       ",
"  ...        ",
"  ...        ",
"  ..         ",
"  .          ",
"             "};

static char * eight_xpm[] = {
"13 20 2 1",
" 	c None",
".	c #000000",
"             ",
"    .....    ",
"   .......   ",
"  .........  ",
" ...     ... ",
" ...     ... ",
" ..       .. ",
" ...     ... ",
" ....   .... ",
"  .........  ",
" ........... ",
" ...     ... ",
"...       ...",
"...       ...",
"...       ...",
" ...     ... ",
" ........... ",
"  .........  ",
"    .....    ",
"             "};

static char * nine_xpm[] = {
"13 20 2 1",
" 	c None",
".	c #000000",
"             ",
"     ...     ",
"   .......   ",
"  .........  ",
" ...     ... ",
" ..       .. ",
"...       ...",
"...       ...",
"...       ...",
" ..       .. ",
" ...     ... ",
"  .........  ",
"   .......   ",
"     .....   ",
"      ...    ",
"     ...     ",
"    ...      ",
"   ...       ",
"    .        ",
"             "};
