/* XPM */
static char * cursor_xpm[] = {
"24 24 46 1",
" 	c None",
".	c #070707",
"+	c #090909",
"@	c #B7B7B7",
"#	c #CDCDCD",
"$	c #000000",
"%	c #F0F0F0",
"&	c #FEFEFE",
"*	c #0B0B0B",
"=	c #F3F3F3",
"-	c #0E0E0E",
";	c #606060",
">	c #444444",
",	c #F1F1F1",
"'	c #A9A9A9",
")	c #A2A2A2",
"!	c #222222",
"~	c #212121",
"{	c #353535",
"]	c #4A4A4A",
"^	c #E9E9E9",
"/	c #050505",
"(	c #DCDCDC",
"_	c #D2D2D2",
":	c #272727",
"<	c #FBFBFB",
"[	c #060606",
"}	c #232323",
"|	c #E8E8E8",
"1	c #EBEBEB",
"2	c #FAFAFA",
"3	c #E5E5E5",
"4	c #4D4D4D",
"5	c #CCCCCC",
"6	c #A3A3A3",
"7	c #B1B1B1",
"8	c #171717",
"9	c #E4E4E4",
"0	c #999999",
"a	c #424242",
"b	c #7E7E7E",
"c	c #545454",
"d	c #BFBFBF",
"e	c #C3C3C3",
"f	c #BABABA",
"g	c #4E4E4E",
"                        ",
"                        ",
"                        ",
"                        ",
"                        ",
"           .+           ",
"           @#$          ",
"          $%&*          ",
"          $=&-          ",
"          $=&;>$        ",
"          $=&&,')!~     ",
"       {]+$=&&&&&%^/    ",
"      /(&_:=&&&&&&<[    ",
"       }|&12&&&&&&3$    ",
"        4&&&&&&&&&5$    ",
"        $6&&&&&&&&7     ",
"         89&&&&&&&0     ",
"          a<&&&&&&b     ",
"           cdeffffg     ",
"            $$$$$$$     ",
"                        ",
"                        ",
"                        ",
"                        "};
